<svg width="8" height="5" viewBox="0 0 8 5" fill="none" xmlns="http://www.w3.org/2000/svg">
<path fill-rule="evenodd" clip-rule="evenodd" d="M0.78299 0.000161754C0.99515 0.00520453 1.17062 0.127248 1.30899 0.283401L4 3.06746L6.69101 0.283403C6.82937 0.127249 7.00485 0.00520455 7.21701 0.000161754C7.4334 -0.00498173 7.61409 0.113144 7.75588 0.268174C7.89711 0.42259 8 0.610702 8 0.828855C8 1.04855 7.89576 1.23524 7.75176 1.38585L4.53794 4.74693C4.40053 4.91853 4.21135 5 4 5C3.78865 5 3.59947 4.91853 3.46206 4.74693L0.248245 1.38585C0.104241 1.23524 0 1.04855 0 0.828855C0 0.610702 0.102888 0.42259 0.244118 0.268174C0.38591 0.113144 0.566595 -0.00498173 0.78299 0.000161754Z" fill="white"/>
</svg>
